<svg width="766" height="220" viewBox="0 0 766 220" fill="none" xmlns="http://www.w3.org/2000/svg">
<rect x="15" y="53" width="736" height="116" rx="20" fill="white" stroke="#2E7CCC" stroke-width="30"/>
<rect x="20" y="58" width="726" height="106" rx="15" fill="white" stroke="#29B6F6" stroke-width="20"/>
<rect x="30" y="68" width="706" height="86" rx="5" fill="#5BC961"/>
<rect x="25" y="63" width="716" height="96" rx="10" fill="white" stroke="#5BC961" stroke-width="10"/>
<path d="M106.168 140L87.2884 115.2V140H73.6084V83.84H87.2884V108.48L106.008 83.84H122.088L100.328 111.36L122.888 140H106.168ZM206.67 83.84L192.03 140H175.47L166.51 103.04L157.23 140H140.67L126.43 83.84H141.07L149.15 124.72L159.15 83.84H174.19L183.79 124.72L191.95 83.84H206.67ZM227.21 83.84V140H213.53V83.84H227.21ZM269.684 140L250.804 115.2V140H237.124V83.84H250.804V108.48L269.524 83.84H285.604L263.844 111.36L286.404 140H269.684ZM327.305 106.24V117.6H292.105V106.24H327.305Z" fill="#CC502E"/>
<path d="M106.168 140L103.781 141.817L104.682 143H106.168V140ZM87.2884 115.2L89.6754 113.383L84.2884 106.307V115.2H87.2884ZM87.2884 140V143H90.2884V140H87.2884ZM73.6084 140H70.6084V143H73.6084V140ZM73.6084 83.84V80.84H70.6084V83.84H73.6084ZM87.2884 83.84H90.2884V80.84H87.2884V83.84ZM87.2884 108.48H84.2884V117.388L89.6772 110.295L87.2884 108.48ZM106.008 83.84V80.84H104.52L103.62 82.0251L106.008 83.84ZM122.088 83.84L124.442 85.7007L128.285 80.84H122.088V83.84ZM100.328 111.36L97.9752 109.499L96.5067 111.356L97.9718 113.216L100.328 111.36ZM122.888 140V143H129.071L125.245 138.144L122.888 140ZM108.555 138.183L89.6754 113.383L84.9014 117.017L103.781 141.817L108.555 138.183ZM84.2884 115.2V140H90.2884V115.2H84.2884ZM87.2884 137H73.6084V143H87.2884V137ZM76.6084 140V83.84H70.6084V140H76.6084ZM73.6084 86.84H87.2884V80.84H73.6084V86.84ZM84.2884 83.84V108.48H90.2884V83.84H84.2884ZM89.6772 110.295L108.397 85.6549L103.62 82.0251L84.8997 106.665L89.6772 110.295ZM106.008 86.84H122.088V80.84H106.008V86.84ZM119.735 81.9793L97.9752 109.499L102.682 113.221L124.442 85.7007L119.735 81.9793ZM97.9718 113.216L120.532 141.856L125.245 138.144L102.685 109.504L97.9718 113.216ZM122.888 137H106.168V143H122.888V137ZM206.67 83.84L209.573 84.5968L210.552 80.84H206.67V83.84ZM192.03 140V143H194.348L194.933 140.757L192.03 140ZM175.47 140L172.554 140.707L173.11 143H175.47V140ZM166.51 103.04L169.425 102.333L163.6 102.309L166.51 103.04ZM157.23 140V143H159.57L160.139 140.731L157.23 140ZM140.67 140L137.762 140.737L138.335 143H140.67V140ZM126.43 83.84V80.84H122.574L123.522 84.5773L126.43 83.84ZM141.07 83.84L144.013 83.2583L143.535 80.84H141.07V83.84ZM149.15 124.72L146.207 125.302L152.064 125.433L149.15 124.72ZM159.15 83.84V80.84H156.795L156.236 83.1272L159.15 83.84ZM174.19 83.84L177.11 83.1542L176.567 80.84H174.19V83.84ZM183.79 124.72L180.869 125.406L186.732 125.307L183.79 124.72ZM191.95 83.84V80.84H189.489L189.008 83.2528L191.95 83.84ZM203.767 83.0832L189.127 139.243L194.933 140.757L209.573 84.5968L203.767 83.0832ZM192.03 137H175.47V143H192.03V137ZM178.385 139.293L169.425 102.333L163.594 103.747L172.554 140.707L178.385 139.293ZM163.6 102.309L154.32 139.269L160.139 140.731L169.419 103.771L163.6 102.309ZM157.23 137H140.67V143H157.23V137ZM143.578 139.263L129.338 83.1026L123.522 84.5773L137.762 140.737L143.578 139.263ZM126.43 86.84H141.07V80.84H126.43V86.84ZM138.127 84.4217L146.207 125.302L152.093 124.138L144.013 83.2583L138.127 84.4217ZM152.064 125.433L162.064 84.5528L156.236 83.1272L146.236 124.007L152.064 125.433ZM159.15 86.84H174.19V80.84H159.15V86.84ZM171.269 84.5258L180.869 125.406L186.71 124.034L177.11 83.1542L171.269 84.5258ZM186.732 125.307L194.892 84.4272L189.008 83.2528L180.848 124.133L186.732 125.307ZM191.95 86.84H206.67V80.84H191.95V86.84ZM227.21 83.84H230.21V80.84H227.21V83.84ZM227.21 140V143H230.21V140H227.21ZM213.53 140H210.53V143H213.53V140ZM213.53 83.84V80.84H210.53V83.84H213.53ZM224.21 83.84V140H230.21V83.84H224.21ZM227.21 137H213.53V143H227.21V137ZM216.53 140V83.84H210.53V140H216.53ZM213.53 86.84H227.21V80.84H213.53V86.84ZM269.684 140L267.297 141.817L268.198 143H269.684V140ZM250.804 115.2L253.191 113.383L247.804 106.307V115.2H250.804ZM250.804 140V143H253.804V140H250.804ZM237.124 140H234.124V143H237.124V140ZM237.124 83.84V80.84H234.124V83.84H237.124ZM250.804 83.84H253.804V80.84H250.804V83.84ZM250.804 108.48H247.804V117.388L253.193 110.295L250.804 108.48ZM269.524 83.84V80.84H268.036L267.135 82.0251L269.524 83.84ZM285.604 83.84L287.957 85.7007L291.801 80.84H285.604V83.84ZM263.844 111.36L261.491 109.499L260.022 111.356L261.487 113.216L263.844 111.36ZM286.404 140V143H292.586L288.761 138.144L286.404 140ZM272.071 138.183L253.191 113.383L248.417 117.017L267.297 141.817L272.071 138.183ZM247.804 115.2V140H253.804V115.2H247.804ZM250.804 137H237.124V143H250.804V137ZM240.124 140V83.84H234.124V140H240.124ZM237.124 86.84H250.804V80.84H237.124V86.84ZM247.804 83.84V108.48H253.804V83.84H247.804ZM253.193 110.295L271.913 85.6549L267.135 82.0251L248.415 106.665L253.193 110.295ZM269.524 86.84H285.604V80.84H269.524V86.84ZM283.251 81.9793L261.491 109.499L266.197 113.221L287.957 85.7007L283.251 81.9793ZM261.487 113.216L284.047 141.856L288.761 138.144L266.201 109.504L261.487 113.216ZM286.404 137H269.684V143H286.404V137ZM327.305 106.24H330.305V103.24H327.305V106.24ZM327.305 117.6V120.6H330.305V117.6H327.305ZM292.105 117.6H289.105V120.6H292.105V117.6ZM292.105 106.24V103.24H289.105V106.24H292.105ZM324.305 106.24V117.6H330.305V106.24H324.305ZM327.305 114.6H292.105V120.6H327.305V114.6ZM295.105 117.6V106.24H289.105V117.6H295.105ZM292.105 109.24H327.305V103.24H292.105V109.24Z" fill="black"/>
<g filter="url(#filter0_d)">
<path d="M461.719 106.24V117.6H426.519V106.24H461.719ZM537.326 83.84V140H523.646V106.32L511.086 140H500.046L487.406 106.24V140H473.726V83.84H489.886L505.646 122.72L521.246 83.84H537.326ZM582.123 130.08H561.163L557.803 140H543.483L563.803 83.84H579.643L599.963 140H585.483L582.123 130.08ZM578.603 119.52L571.643 98.96L564.763 119.52H578.603ZM634.788 140L623.108 118.8H619.828V140H606.148V83.84H629.108C633.534 83.84 637.294 84.6133 640.388 86.16C643.534 87.7067 645.881 89.84 647.428 92.56C648.974 95.2267 649.748 98.2133 649.748 101.52C649.748 105.253 648.681 108.587 646.548 111.52C644.468 114.453 641.374 116.533 637.268 117.76L650.228 140H634.788ZM619.828 109.12H628.308C630.814 109.12 632.681 108.507 633.908 107.28C635.188 106.053 635.828 104.32 635.828 102.08C635.828 99.9467 635.188 98.2667 633.908 97.04C632.681 95.8133 630.814 95.2 628.308 95.2H619.828V109.12ZM698.735 83.84V94.8H683.855V140H670.175V94.8H655.295V83.84H698.735Z" fill="#CC502E"/>
<path d="M461.719 106.24H464.719V103.24H461.719V106.24ZM461.719 117.6V120.6H464.719V117.6H461.719ZM426.519 117.6H423.519V120.6H426.519V117.6ZM426.519 106.24V103.24H423.519V106.24H426.519ZM458.719 106.24V117.6H464.719V106.24H458.719ZM461.719 114.6H426.519V120.6H461.719V114.6ZM429.519 117.6V106.24H423.519V117.6H429.519ZM426.519 109.24H461.719V103.24H426.519V109.24ZM537.326 83.84H540.326V80.84H537.326V83.84ZM537.326 140V143H540.326V140H537.326ZM523.646 140H520.646V143H523.646V140ZM523.646 106.32H526.646L520.835 105.272L523.646 106.32ZM511.086 140V143H513.169L513.897 141.048L511.086 140ZM500.046 140L497.236 141.052L497.965 143H500.046V140ZM487.406 106.24L490.215 105.188L484.406 106.24H487.406ZM487.406 140V143H490.406V140H487.406ZM473.726 140H470.726V143H473.726V140ZM473.726 83.84V80.84H470.726V83.84H473.726ZM489.886 83.84L492.666 82.713L491.907 80.84H489.886V83.84ZM505.646 122.72L502.865 123.847L505.66 130.741L508.43 123.837L505.646 122.72ZM521.246 83.84V80.84H519.217L518.461 82.7229L521.246 83.84ZM534.326 83.84V140H540.326V83.84H534.326ZM537.326 137H523.646V143H537.326V137ZM526.646 140V106.32H520.646V140H526.646ZM520.835 105.272L508.275 138.952L513.897 141.048L526.457 107.368L520.835 105.272ZM511.086 137H500.046V143H511.086V137ZM502.855 138.948L490.215 105.188L484.596 107.292L497.236 141.052L502.855 138.948ZM484.406 106.24V140H490.406V106.24H484.406ZM487.406 137H473.726V143H487.406V137ZM476.726 140V83.84H470.726V140H476.726ZM473.726 86.84H489.886V80.84H473.726V86.84ZM487.105 84.967L502.865 123.847L508.426 121.593L492.666 82.713L487.105 84.967ZM508.43 123.837L524.03 84.9571L518.461 82.7229L502.861 121.603L508.43 123.837ZM521.246 86.84H537.326V80.84H521.246V86.84ZM582.123 130.08L584.965 129.118L584.274 127.08H582.123V130.08ZM561.163 130.08V127.08H559.012L558.322 129.118L561.163 130.08ZM557.803 140V143H559.954L560.645 140.962L557.803 140ZM543.483 140L540.662 138.979L539.207 143H543.483V140ZM563.803 83.84V80.84H561.698L560.982 82.8193L563.803 83.84ZM579.643 83.84L582.464 82.8193L581.748 80.84H579.643V83.84ZM599.963 140V143H604.239L602.784 138.979L599.963 140ZM585.483 140L582.642 140.962L583.332 143H585.483V140ZM578.603 119.52V122.52H582.786L581.445 118.558L578.603 119.52ZM571.643 98.96L574.485 97.9981L571.627 89.5554L568.798 98.008L571.643 98.96ZM564.763 119.52L561.918 118.568L560.596 122.52H564.763V119.52ZM582.123 127.08H561.163V133.08H582.123V127.08ZM558.322 129.118L554.962 139.038L560.645 140.962L564.005 131.042L558.322 129.118ZM557.803 137H543.483V143H557.803V137ZM546.304 141.021L566.624 84.8607L560.982 82.8193L540.662 138.979L546.304 141.021ZM563.803 86.84H579.643V80.84H563.803V86.84ZM576.822 84.8607L597.142 141.021L602.784 138.979L582.464 82.8193L576.822 84.8607ZM599.963 137H585.483V143H599.963V137ZM588.325 139.038L584.965 129.118L579.282 131.042L582.642 140.962L588.325 139.038ZM581.445 118.558L574.485 97.9981L568.802 99.9219L575.762 120.482L581.445 118.558ZM568.798 98.008L561.918 118.568L567.608 120.472L574.488 99.912L568.798 98.008ZM564.763 122.52H578.603V116.52H564.763V122.52ZM634.788 140L632.16 141.448L633.015 143H634.788V140ZM623.108 118.8L625.735 117.352L624.88 115.8H623.108V118.8ZM619.828 118.8V115.8H616.828V118.8H619.828ZM619.828 140V143H622.828V140H619.828ZM606.148 140H603.148V143H606.148V140ZM606.148 83.84V80.84H603.148V83.84H606.148ZM640.388 86.16L639.046 88.8433L639.055 88.8478L639.064 88.8523L640.388 86.16ZM647.428 92.56L644.82 94.0429L644.826 94.0541L644.832 94.0652L647.428 92.56ZM646.548 111.52L644.121 109.755L644.111 109.77L644.1 109.785L646.548 111.52ZM637.268 117.76L636.409 114.885L632.756 115.977L634.675 119.27L637.268 117.76ZM650.228 140V143H655.448L652.82 138.49L650.228 140ZM619.828 109.12H616.828V112.12H619.828V109.12ZM633.908 107.28L631.832 105.114L631.809 105.136L631.786 105.159L633.908 107.28ZM633.908 97.04L631.786 99.1613L631.809 99.1839L631.832 99.206L633.908 97.04ZM619.828 95.2V92.2H616.828V95.2H619.828ZM637.415 138.552L625.735 117.352L620.48 120.248L632.16 141.448L637.415 138.552ZM623.108 115.8H619.828V121.8H623.108V115.8ZM616.828 118.8V140H622.828V118.8H616.828ZM619.828 137H606.148V143H619.828V137ZM609.148 140V83.84H603.148V140H609.148ZM606.148 86.84H629.108V80.84H606.148V86.84ZM629.108 86.84C633.195 86.84 636.469 87.5549 639.046 88.8433L641.729 83.4767C638.119 81.6718 633.874 80.84 629.108 80.84V86.84ZM639.064 88.8523C641.739 90.1669 643.605 91.9075 644.82 94.0429L650.035 91.0771C648.156 87.7725 645.33 85.2464 641.711 83.4677L639.064 88.8523ZM644.832 94.0652C646.095 96.2413 646.748 98.7022 646.748 101.52H652.748C652.748 97.7244 651.854 94.212 650.023 91.0548L644.832 94.0652ZM646.748 101.52C646.748 104.639 645.87 107.351 644.121 109.755L648.974 113.285C651.491 109.823 652.748 105.867 652.748 101.52H646.748ZM644.1 109.785C642.478 112.072 640.001 113.812 636.409 114.885L638.126 120.635C642.747 119.254 646.457 116.835 648.995 113.255L644.1 109.785ZM634.675 119.27L647.635 141.51L652.82 138.49L639.86 116.25L634.675 119.27ZM650.228 137H634.788V143H650.228V137ZM619.828 112.12H628.308V106.12H619.828V112.12ZM628.308 112.12C631.255 112.12 634.03 111.4 636.029 109.401L631.786 105.159C631.331 105.614 630.374 106.12 628.308 106.12V112.12ZM635.983 109.446C638 107.513 638.828 104.909 638.828 102.08H632.828C632.828 103.731 632.375 104.594 631.832 105.114L635.983 109.446ZM638.828 102.08C638.828 99.3079 637.971 96.7795 635.983 94.874L631.832 99.206C632.404 99.7539 632.828 100.585 632.828 102.08H638.828ZM636.029 94.9187C634.03 92.9202 631.255 92.2 628.308 92.2V98.2C630.374 98.2 631.331 98.7065 631.786 99.1613L636.029 94.9187ZM628.308 92.2H619.828V98.2H628.308V92.2ZM616.828 95.2V109.12H622.828V95.2H616.828ZM698.735 83.84H701.735V80.84H698.735V83.84ZM698.735 94.8V97.8H701.735V94.8H698.735ZM683.855 94.8V91.8H680.855V94.8H683.855ZM683.855 140V143H686.855V140H683.855ZM670.175 140H667.175V143H670.175V140ZM670.175 94.8H673.175V91.8H670.175V94.8ZM655.295 94.8H652.295V97.8H655.295V94.8ZM655.295 83.84V80.84H652.295V83.84H655.295ZM695.735 83.84V94.8H701.735V83.84H695.735ZM698.735 91.8H683.855V97.8H698.735V91.8ZM680.855 94.8V140H686.855V94.8H680.855ZM683.855 137H670.175V143H683.855V137ZM673.175 140V94.8H667.175V140H673.175ZM670.175 91.8H655.295V97.8H670.175V91.8ZM658.295 94.8V83.84H652.295V94.8H658.295ZM655.295 86.84H698.735V80.84H655.295V86.84Z" fill="black"/>
</g>
<path d="M370.999 75.6V98.32H407.639V119.44H370.999V144.08H412.439V166H343.639V53.68H412.439V75.6H370.999Z" fill="#CC502E"/>
<path d="M370.999 75.6V71.6H366.999V75.6H370.999ZM370.999 98.32H366.999V102.32H370.999V98.32ZM407.639 98.32H411.639V94.32H407.639V98.32ZM407.639 119.44V123.44H411.639V119.44H407.639ZM370.999 119.44V115.44H366.999V119.44H370.999ZM370.999 144.08H366.999V148.08H370.999V144.08ZM412.439 144.08H416.439V140.08H412.439V144.08ZM412.439 166V170H416.439V166H412.439ZM343.639 166H339.639V170H343.639V166ZM343.639 53.68V49.68H339.639V53.68H343.639ZM412.439 53.68H416.439V49.68H412.439V53.68ZM412.439 75.6V79.6H416.439V75.6H412.439ZM366.999 75.6V98.32H374.999V75.6H366.999ZM370.999 102.32H407.639V94.32H370.999V102.32ZM403.639 98.32V119.44H411.639V98.32H403.639ZM407.639 115.44H370.999V123.44H407.639V115.44ZM366.999 119.44V144.08H374.999V119.44H366.999ZM370.999 148.08H412.439V140.08H370.999V148.08ZM408.439 144.08V166H416.439V144.08H408.439ZM412.439 162H343.639V170H412.439V162ZM347.639 166V53.68H339.639V166H347.639ZM343.639 57.68H412.439V49.68H343.639V57.68ZM408.439 53.68V75.6H416.439V53.68H408.439ZM412.439 71.6H370.999V79.6H412.439V71.6Z" fill="black"/>
<defs>
<filter id="filter0_d" x="419.519" y="80.84" width="286.216" height="70.16" filterUnits="userSpaceOnUse" color-interpolation-filters="sRGB">
<feFlood flood-opacity="0" result="BackgroundImageFix"/>
<feColorMatrix in="SourceAlpha" type="matrix" values="0 0 0 0 0 0 0 0 0 0 0 0 0 0 0 0 0 0 127 0"/>
<feOffset dy="4"/>
<feGaussianBlur stdDeviation="2"/>
<feColorMatrix type="matrix" values="0 0 0 0 0 0 0 0 0 0 0 0 0 0 0 0 0 0 0.25 0"/>
<feBlend mode="normal" in2="BackgroundImageFix" result="effect1_dropShadow"/>
<feBlend mode="normal" in="SourceGraphic" in2="effect1_dropShadow" result="shape"/>
</filter>
</defs>
</svg>
