<svg width="306" height="349" viewBox="0 0 306 349" fill="none" xmlns="http://www.w3.org/2000/svg">
<rect x="10" y="10" width="286" height="329" rx="15" fill="white" stroke="#2E7CCC" stroke-width="20"/>
<rect x="15" y="15" width="276" height="319" rx="10" fill="white" stroke="#29B6F6" stroke-width="10"/>
<path d="M32.396 32.3679C32.1822 29.4694 34.4761 27 37.3824 27H269.719C272.588 27 274.868 29.4085 274.712 32.2728L265.258 205.273C265.113 207.924 262.921 210 260.266 210H50.1447C47.526 210 45.3509 207.979 45.1583 205.368L32.396 32.3679Z" fill="#5BC961"/>
<path d="M80.8716 92L61.9916 67.2V92H48.3116V35.84H61.9916V60.48L80.7116 35.84H96.7916L75.0316 63.36L97.5916 92H80.8716ZM181.373 35.84L166.733 92H150.173L141.213 55.04L131.933 92H115.373L101.133 35.84H115.773L123.853 76.72L133.853 35.84H148.893L158.493 76.72L166.653 35.84H181.373ZM201.913 35.84V92H188.233V35.84H201.913ZM244.387 92L225.507 67.2V92H211.827V35.84H225.507V60.48L244.227 35.84H260.307L238.547 63.36L261.107 92H244.387Z" fill="#CC502E"/>
<path d="M80.8716 92L78.4846 93.8172L79.385 95H80.8716V92ZM61.9916 67.2L64.3786 65.3828L58.9916 58.3067V67.2H61.9916ZM61.9916 92V95H64.9916V92H61.9916ZM48.3116 92H45.3116V95H48.3116V92ZM48.3116 35.84V32.84H45.3116V35.84H48.3116ZM61.9916 35.84H64.9916V32.84H61.9916V35.84ZM61.9916 60.48H58.9916V69.3878L64.3803 62.2949L61.9916 60.48ZM80.7116 35.84V32.84H79.2232L78.3228 34.0251L80.7116 35.84ZM96.7916 35.84L99.1448 37.7007L102.988 32.84H96.7916V35.84ZM75.0316 63.36L72.6783 61.4993L71.2098 63.3565L72.6749 65.2164L75.0316 63.36ZM97.5916 92V95H103.774L99.9482 90.1436L97.5916 92ZM83.2586 90.1828L64.3786 65.3828L59.6046 69.0172L78.4846 93.8172L83.2586 90.1828ZM58.9916 67.2V92H64.9916V67.2H58.9916ZM61.9916 89H48.3116V95H61.9916V89ZM51.3116 92V35.84H45.3116V92H51.3116ZM48.3116 38.84H61.9916V32.84H48.3116V38.84ZM58.9916 35.84V60.48H64.9916V35.84H58.9916ZM64.3803 62.2949L83.1003 37.6549L78.3228 34.0251L59.6028 58.6651L64.3803 62.2949ZM80.7116 38.84H96.7916V32.84H80.7116V38.84ZM94.4383 33.9793L72.6783 61.4993L77.3848 65.2207L99.1448 37.7007L94.4383 33.9793ZM72.6749 65.2164L95.2349 93.8564L99.9482 90.1436L77.3882 61.5036L72.6749 65.2164ZM97.5916 89H80.8716V95H97.5916V89ZM181.373 35.84L184.276 36.5968L185.255 32.84H181.373V35.84ZM166.733 92V95H169.051L169.636 92.7568L166.733 92ZM150.173 92L147.257 92.7068L147.813 95H150.173V92ZM141.213 55.04L144.128 54.3332L138.303 54.3094L141.213 55.04ZM131.933 92V95H134.273L134.842 92.7306L131.933 92ZM115.373 92L112.465 92.7373L113.039 95H115.373V92ZM101.133 35.84V32.84H97.2772L98.2248 36.5773L101.133 35.84ZM115.773 35.84L118.716 35.2583L118.238 32.84H115.773V35.84ZM123.853 76.72L120.91 77.3017L126.767 77.4328L123.853 76.72ZM133.853 35.84V32.84H131.498L130.939 35.1272L133.853 35.84ZM148.893 35.84L151.813 35.1542L151.27 32.84H148.893V35.84ZM158.493 76.72L155.572 77.4058L161.435 77.3072L158.493 76.72ZM166.653 35.84V32.84H164.192L163.711 35.2528L166.653 35.84ZM178.47 35.0832L163.83 91.2432L169.636 92.7568L184.276 36.5968L178.47 35.0832ZM166.733 89H150.173V95H166.733V89ZM153.088 91.2932L144.128 54.3332L138.297 55.7468L147.257 92.7068L153.088 91.2932ZM138.303 54.3094L129.023 91.2694L134.842 92.7306L144.122 55.7706L138.303 54.3094ZM131.933 89H115.373V95H131.933V89ZM118.281 91.2627L104.041 35.1026L98.2248 36.5773L112.465 92.7373L118.281 91.2627ZM101.133 38.84H115.773V32.84H101.133V38.84ZM112.83 36.4217L120.91 77.3017L126.796 76.1383L118.716 35.2583L112.83 36.4217ZM126.767 77.4328L136.767 36.5528L130.939 35.1272L120.939 76.0072L126.767 77.4328ZM133.853 38.84H148.893V32.84H133.853V38.84ZM145.972 36.5258L155.572 77.4058L161.413 76.0342L151.813 35.1542L145.972 36.5258ZM161.435 77.3072L169.595 36.4272L163.711 35.2528L155.551 76.1328L161.435 77.3072ZM166.653 38.84H181.373V32.84H166.653V38.84ZM201.913 35.84H204.913V32.84H201.913V35.84ZM201.913 92V95H204.913V92H201.913ZM188.233 92H185.233V95H188.233V92ZM188.233 35.84V32.84H185.233V35.84H188.233ZM198.913 35.84V92H204.913V35.84H198.913ZM201.913 89H188.233V95H201.913V89ZM191.233 92V35.84H185.233V92H191.233ZM188.233 38.84H201.913V32.84H188.233V38.84ZM244.387 92L242 93.8172L242.901 95H244.387V92ZM225.507 67.2L227.894 65.3828L222.507 58.3067V67.2H225.507ZM225.507 92V95H228.507V92H225.507ZM211.827 92H208.827V95H211.827V92ZM211.827 35.84V32.84H208.827V35.84H211.827ZM225.507 35.84H228.507V32.84H225.507V35.84ZM225.507 60.48H222.507V69.3878L227.896 62.2949L225.507 60.48ZM244.227 35.84V32.84H242.739L241.838 34.0251L244.227 35.84ZM260.307 35.84L262.66 37.7007L266.504 32.84H260.307V35.84ZM238.547 63.36L236.194 61.4993L234.725 63.3565L236.191 65.2164L238.547 63.36ZM261.107 92V95H267.289L263.464 90.1436L261.107 92ZM246.774 90.1828L227.894 65.3828L223.12 69.0172L242 93.8172L246.774 90.1828ZM222.507 67.2V92H228.507V67.2H222.507ZM225.507 89H211.827V95H225.507V89ZM214.827 92V35.84H208.827V92H214.827ZM211.827 38.84H225.507V32.84H211.827V38.84ZM222.507 35.84V60.48H228.507V35.84H222.507ZM227.896 62.2949L246.616 37.6549L241.838 34.0251L223.118 58.6651L227.896 62.2949ZM244.227 38.84H260.307V32.84H244.227V38.84ZM257.954 33.9793L236.194 61.4993L240.9 65.2207L262.66 37.7007L257.954 33.9793ZM236.191 65.2164L258.751 93.8564L263.464 90.1436L240.904 61.5036L236.191 65.2164ZM261.107 89H244.387V95H261.107V89Z" fill="black"/>
<g filter="url(#filter0_d)">
<path d="M105.623 257.84V314H91.9425V280.32L79.3825 314H68.3425L55.7025 280.24V314H42.0225V257.84H58.1825L73.9425 296.72L89.5425 257.84H105.623ZM150.42 304.08H129.46L126.1 314H111.78L132.1 257.84H147.94L168.26 314H153.78L150.42 304.08ZM146.9 293.52L139.94 272.96L133.06 293.52H146.9ZM203.084 314L191.404 292.8H188.124V314H174.444V257.84H197.404C201.831 257.84 205.591 258.613 208.684 260.16C211.831 261.707 214.178 263.84 215.724 266.56C217.271 269.227 218.044 272.213 218.044 275.52C218.044 279.253 216.978 282.587 214.844 285.52C212.764 288.453 209.671 290.533 205.564 291.76L218.524 314H203.084ZM188.124 283.12H196.604C199.111 283.12 200.978 282.507 202.204 281.28C203.484 280.053 204.124 278.32 204.124 276.08C204.124 273.947 203.484 272.267 202.204 271.04C200.978 269.813 199.111 269.2 196.604 269.2H188.124V283.12ZM267.032 257.84V268.8H252.152V314H238.472V268.8H223.592V257.84H267.032Z" fill="#CC502E"/>
<path d="M105.623 257.84H108.623V254.84H105.623V257.84ZM105.623 314V317H108.623V314H105.623ZM91.9425 314H88.9425V317H91.9425V314ZM91.9425 280.32H94.9425L89.1316 279.272L91.9425 280.32ZM79.3825 314V317H81.4656L82.1934 315.048L79.3825 314ZM68.3425 314L65.533 315.052L66.2623 317H68.3425V314ZM55.7025 280.24L58.512 279.188L52.7025 280.24H55.7025ZM55.7025 314V317H58.7025V314H55.7025ZM42.0225 314H39.0225V317H42.0225V314ZM42.0225 257.84V254.84H39.0225V257.84H42.0225ZM58.1825 257.84L60.9628 256.713L60.2035 254.84H58.1825V257.84ZM73.9425 296.72L71.1622 297.847L73.9567 304.741L76.7267 297.837L73.9425 296.72ZM89.5425 257.84V254.84H87.5137L86.7583 256.723L89.5425 257.84ZM102.623 257.84V314H108.623V257.84H102.623ZM105.623 311H91.9425V317H105.623V311ZM94.9425 314V280.32H88.9425V314H94.9425ZM89.1316 279.272L76.5716 312.952L82.1934 315.048L94.7534 281.368L89.1316 279.272ZM79.3825 311H68.3425V317H79.3825V311ZM71.152 312.948L58.512 279.188L52.893 281.292L65.533 315.052L71.152 312.948ZM52.7025 280.24V314H58.7025V280.24H52.7025ZM55.7025 311H42.0225V317H55.7025V311ZM45.0225 314V257.84H39.0225V314H45.0225ZM42.0225 260.84H58.1825V254.84H42.0225V260.84ZM55.4022 258.967L71.1622 297.847L76.7228 295.593L60.9628 256.713L55.4022 258.967ZM76.7267 297.837L92.3267 258.957L86.7583 256.723L71.1583 295.603L76.7267 297.837ZM89.5425 260.84H105.623V254.84H89.5425V260.84ZM150.42 304.08L153.261 303.118L152.571 301.08H150.42V304.08ZM129.46 304.08V301.08H127.309L126.619 303.118L129.46 304.08ZM126.1 314V317H128.251L128.941 314.962L126.1 314ZM111.78 314L108.959 312.979L107.504 317H111.78V314ZM132.1 257.84V254.84H129.995L129.279 256.819L132.1 257.84ZM147.94 257.84L150.761 256.819L150.045 254.84H147.94V257.84ZM168.26 314V317H172.536L171.081 312.979L168.26 314ZM153.78 314L150.939 314.962L151.629 317H153.78V314ZM146.9 293.52V296.52H151.083L149.742 292.558L146.9 293.52ZM139.94 272.96L142.782 271.998L139.924 263.555L137.095 272.008L139.94 272.96ZM133.06 293.52L130.215 292.568L128.893 296.52H133.06V293.52ZM150.42 301.08H129.46V307.08H150.42V301.08ZM126.619 303.118L123.259 313.038L128.941 314.962L132.301 305.042L126.619 303.118ZM126.1 311H111.78V317H126.1V311ZM114.601 315.021L134.921 258.861L129.279 256.819L108.959 312.979L114.601 315.021ZM132.1 260.84H147.94V254.84H132.1V260.84ZM145.119 258.861L165.439 315.021L171.081 312.979L150.761 256.819L145.119 258.861ZM168.26 311H153.78V317H168.26V311ZM156.621 313.038L153.261 303.118L147.579 305.042L150.939 314.962L156.621 313.038ZM149.742 292.558L142.782 271.998L137.098 273.922L144.058 294.482L149.742 292.558ZM137.095 272.008L130.215 292.568L135.905 294.472L142.785 273.912L137.095 272.008ZM133.06 296.52H146.9V290.52H133.06V296.52ZM203.084 314L200.457 315.448L201.312 317H203.084V314ZM191.404 292.8L194.032 291.352L193.177 289.8H191.404V292.8ZM188.124 292.8V289.8H185.124V292.8H188.124ZM188.124 314V317H191.124V314H188.124ZM174.444 314H171.444V317H174.444V314ZM174.444 257.84V254.84H171.444V257.84H174.444ZM208.684 260.16L207.343 262.843L207.352 262.848L207.361 262.852L208.684 260.16ZM215.724 266.56L213.117 268.043L213.123 268.054L213.129 268.065L215.724 266.56ZM214.844 285.52L212.418 283.755L212.408 283.77L212.397 283.785L214.844 285.52ZM205.564 291.76L204.706 288.885L201.053 289.977L202.972 293.27L205.564 291.76ZM218.524 314V317H223.745L221.116 312.49L218.524 314ZM188.124 283.12H185.124V286.12H188.124V283.12ZM202.204 281.28L200.129 279.114L200.106 279.136L200.083 279.159L202.204 281.28ZM202.204 271.04L200.083 273.161L200.106 273.184L200.129 273.206L202.204 271.04ZM188.124 269.2V266.2H185.124V269.2H188.124ZM205.712 312.552L194.032 291.352L188.777 294.248L200.457 315.448L205.712 312.552ZM191.404 289.8H188.124V295.8H191.404V289.8ZM185.124 292.8V314H191.124V292.8H185.124ZM188.124 311H174.444V317H188.124V311ZM177.444 314V257.84H171.444V314H177.444ZM174.444 260.84H197.404V254.84H174.444V260.84ZM197.404 260.84C201.492 260.84 204.766 261.555 207.343 262.843L210.026 257.477C206.416 255.672 202.17 254.84 197.404 254.84V260.84ZM207.361 262.852C210.036 264.167 211.902 265.908 213.117 268.043L218.332 265.077C216.453 261.772 213.627 259.246 210.008 257.468L207.361 262.852ZM213.129 268.065C214.391 270.241 215.044 272.702 215.044 275.52H221.044C221.044 271.724 220.151 268.212 218.319 265.055L213.129 268.065ZM215.044 275.52C215.044 278.639 214.167 281.351 212.418 283.755L217.271 287.285C219.788 283.823 221.044 279.867 221.044 275.52H215.044ZM212.397 283.785C210.775 286.072 208.298 287.812 204.706 288.885L206.423 294.635C211.044 293.254 214.754 290.835 217.292 287.255L212.397 283.785ZM202.972 293.27L215.932 315.51L221.116 312.49L208.156 290.25L202.972 293.27ZM218.524 311H203.084V317H218.524V311ZM188.124 286.12H196.604V280.12H188.124V286.12ZM196.604 286.12C199.552 286.12 202.327 285.4 204.326 283.401L200.083 279.159C199.628 279.614 198.67 280.12 196.604 280.12V286.12ZM204.28 283.446C206.297 281.513 207.124 278.909 207.124 276.08H201.124C201.124 277.731 200.672 278.594 200.129 279.114L204.28 283.446ZM207.124 276.08C207.124 273.308 206.268 270.779 204.28 268.874L200.129 273.206C200.7 273.754 201.124 274.585 201.124 276.08H207.124ZM204.326 268.919C202.327 266.92 199.552 266.2 196.604 266.2V272.2C198.67 272.2 199.628 272.706 200.083 273.161L204.326 268.919ZM196.604 266.2H188.124V272.2H196.604V266.2ZM185.124 269.2V283.12H191.124V269.2H185.124ZM267.032 257.84H270.032V254.84H267.032V257.84ZM267.032 268.8V271.8H270.032V268.8H267.032ZM252.152 268.8V265.8H249.152V268.8H252.152ZM252.152 314V317H255.152V314H252.152ZM238.472 314H235.472V317H238.472V314ZM238.472 268.8H241.472V265.8H238.472V268.8ZM223.592 268.8H220.592V271.8H223.592V268.8ZM223.592 257.84V254.84H220.592V257.84H223.592ZM264.032 257.84V268.8H270.032V257.84H264.032ZM267.032 265.8H252.152V271.8H267.032V265.8ZM249.152 268.8V314H255.152V268.8H249.152ZM252.152 311H238.472V317H252.152V311ZM241.472 314V268.8H235.472V314H241.472ZM238.472 265.8H223.592V271.8H238.472V265.8ZM226.592 268.8V257.84H220.592V268.8H226.592ZM223.592 260.84H267.032V254.84H223.592V260.84Z" fill="black"/>
</g>
<path d="M146.999 140.6V163.32H183.639V184.44H146.999V209.08H188.439V231H119.639V118.68H188.439V140.6H146.999Z" fill="#CC502E"/>
<path d="M146.999 140.6V136.6H142.999V140.6H146.999ZM146.999 163.32H142.999V167.32H146.999V163.32ZM183.639 163.32H187.639V159.32H183.639V163.32ZM183.639 184.44V188.44H187.639V184.44H183.639ZM146.999 184.44V180.44H142.999V184.44H146.999ZM146.999 209.08H142.999V213.08H146.999V209.08ZM188.439 209.08H192.439V205.08H188.439V209.08ZM188.439 231V235H192.439V231H188.439ZM119.639 231H115.639V235H119.639V231ZM119.639 118.68V114.68H115.639V118.68H119.639ZM188.439 118.68H192.439V114.68H188.439V118.68ZM188.439 140.6V144.6H192.439V140.6H188.439ZM142.999 140.6V163.32H150.999V140.6H142.999ZM146.999 167.32H183.639V159.32H146.999V167.32ZM179.639 163.32V184.44H187.639V163.32H179.639ZM183.639 180.44H146.999V188.44H183.639V180.44ZM142.999 184.44V209.08H150.999V184.44H142.999ZM146.999 213.08H188.439V205.08H146.999V213.08ZM184.439 209.08V231H192.439V209.08H184.439ZM188.439 227H119.639V235H188.439V227ZM123.639 231V118.68H115.639V231H123.639ZM119.639 122.68H188.439V114.68H119.639V122.68ZM184.439 118.68V140.6H192.439V118.68H184.439ZM188.439 136.6H146.999V144.6H188.439V136.6Z" fill="black"/>
<defs>
<filter id="filter0_d" x="35.0225" y="254.84" width="239.009" height="70.16" filterUnits="userSpaceOnUse" color-interpolation-filters="sRGB">
<feFlood flood-opacity="0" result="BackgroundImageFix"/>
<feColorMatrix in="SourceAlpha" type="matrix" values="0 0 0 0 0 0 0 0 0 0 0 0 0 0 0 0 0 0 127 0"/>
<feOffset dy="4"/>
<feGaussianBlur stdDeviation="2"/>
<feColorMatrix type="matrix" values="0 0 0 0 0 0 0 0 0 0 0 0 0 0 0 0 0 0 0.25 0"/>
<feBlend mode="normal" in2="BackgroundImageFix" result="effect1_dropShadow"/>
<feBlend mode="normal" in="SourceGraphic" in2="effect1_dropShadow" result="shape"/>
</filter>
</defs>
</svg>
